<?xml version="1.0" encoding="UTF-8"?>
<!DOCTYPE svg PUBLIC "-//W3C//DTD SVG 1.1//EN" "http://www.w3.org/Graphics/SVG/1.1/DTD/svg11.dtd">
<!-- Creator: CorelDRAW -->
<svg xmlns="http://www.w3.org/2000/svg" xml:space="preserve" width="2048px" height="2048px" style="shape-rendering:geometricPrecision; text-rendering:geometricPrecision; image-rendering:optimizeQuality; fill-rule:evenodd; clip-rule:evenodd"
viewBox="0 0 2048 2048"
 xmlns:xlink="http://www.w3.org/1999/xlink">
 <defs>
  <style type="text/css">
   <![CDATA[
    .fil2 {fill:none}
    .fil3 {fill:#424242}
    .fil4 {fill:#757575}
    .fil5 {fill:#A5A5A5}
    .fil6 {fill:#BDBDBD}
    .fil1 {fill:#E64A19}
    .fil0 {fill:#E8EAF6}
   ]]>
  </style>
 </defs>
 <g id="Layer_x0020_1">
  <metadata id="CorelCorpID_0Corel-Layer"/>
  <path class="fil0" d="M302.072 402.456c-25.3193,0 -46.0725,21.0166 -46.0725,47.0894l0 1294.91c0,26.0729 20.7532,47.5618 46.0725,47.5618l1443.85 0c25.3205,0 46.0819,-21.489 46.0819,-47.5618l0 -1294.91c0,-26.0729 -20.7614,-47.0894 -46.0819,-47.0894l-246.377 0 -292.923 0 -365.693 0 -292.477 0 -246.377 0z"/>
  <path class="fil1" d="M302.072 402.456c-25.3193,0 -46.0725,21.0166 -46.0725,47.0894l0 382.453 1536 0 0 -382.453c0,-26.0729 -20.7614,-47.0894 -46.0819,-47.0894l-246.377 0 -292.923 0 -365.693 0 -292.477 0 -246.377 0z"/>
  <rect class="fil2" width="2048" height="2048"/>
  <rect class="fil2" x="255.999" y="255.999" width="1536" height="1536"/>
  <rect class="fil2" x="255.999" y="255.999" width="1536" height="1536"/>
  <path class="fil3" d="M1143.03 1197.52c11.2713,-3.13701 24.0059,-0.376772 32.9185,8.52757 13.1551,13.0417 13.1551,34.4173 0,47.6339l-140.445 140.471c-6.57284,6.56457 -15.2055,9.90355 -23.9351,9.90355 -8.61497,0 -17.1343,-3.33898 -23.8122,-9.90355l-86.5453 -86.5548c-31.3146,-31.3748 16.3099,-79.0867 47.6244,-47.7296l62.7331 62.7426 131.462 -125.091z"/>
  <polygon class="fil4" points="548.449,1133.84 329.233,1133.84 329.233,914.159 548.449,914.159 "/>
  <polygon class="fil4" points="548.449,1426.3 329.233,1426.3 329.233,1206.61 548.449,1206.61 "/>
  <path class="fil4" d="M548.449 1718.78l-187.78 0c-17.5453,0 -31.4362,-12.1559 -31.4362,-27.5197l0 -191.724 219.216 0 0 219.243z"/>
  <polygon class="fil4" points="621.682,1499.53 840.925,1499.53 840.925,1718.78 621.682,1718.78 "/>
  <polygon class="fil4" points="621.682,1206.61 840.925,1206.61 840.925,1426.3 621.682,1426.3 "/>
  <polygon class="fil4" points="621.682,914.159 840.925,914.159 840.925,1133.84 621.682,1133.84 "/>
  <polygon class="fil4" points="914.142,1499.53 1133.85,1499.53 1133.85,1718.78 914.142,1718.78 "/>
  <polygon class="fil4" points="914.142,914.159 1133.85,914.159 1133.85,1133.84 914.142,1133.84 "/>
  <polygon class="fil4" points="1206.62,1499.53 1426.31,1499.53 1426.31,1718.78 1206.62,1718.78 "/>
  <polygon class="fil4" points="1206.62,1206.61 1426.31,1206.61 1426.31,1426.3 1206.62,1426.3 "/>
  <polygon class="fil4" points="1206.62,914.159 1426.31,914.159 1426.31,1133.84 1206.62,1133.84 "/>
  <path class="fil4" d="M1499.54 1499.53l219.217 0 0 191.724c0,15.3638 -13.891,27.5197 -31.4374,27.5197l-187.78 0 0 -219.243z"/>
  <polygon class="fil4" points="1499.54,1206.61 1718.76,1206.61 1718.76,1426.3 1499.54,1426.3 "/>
  <polygon class="fil4" points="1499.54,914.159 1718.76,914.159 1718.76,1133.84 1499.54,1133.84 "/>
  <g id="_344173928">
   <path id="_344173760" class="fil5" d="M1354.23 329.6l-14.2075 0c-23.7059,0 -42.9957,19.0099 -42.9957,42.9945l0 142.543c0,23.7059 19.2898,42.913 42.9957,42.913l14.2075 0 0 -228.45z"/>
   <path id="_344173952" class="fil6" d="M1366.16 558.05c23.6988,0 42.9886,-18.9272 42.9886,-42.913l0 -142.543c0,-23.7047 -19.2898,-42.9945 -42.9886,-42.9945l-13.2697 0 -0.944883 0 0 228.45 0.101575 0 14.113 0z"/>
  </g>
  <g id="_344170064">
   <path id="_344172464" class="fil5" d="M697.204 329.6l-14.2075 0c-23.7059,0 -42.9957,19.0099 -42.9957,42.9945l0 142.543c0,23.7059 19.2898,42.913 42.9957,42.913l14.2075 0 0 -228.45z"/>
   <path id="_344173736" class="fil6" d="M709.134 558.05c23.6988,0 42.9886,-18.9272 42.9886,-42.913l0 -142.543c0,-23.7047 -19.2898,-42.9945 -42.9886,-42.9945l-13.2697 0 -0.944883 0 0 228.45 0.101575 0 14.113 0z"/>
  </g>
 </g>
</svg>
